<?xml version="1.0" encoding="utf-8"?>
<!-- Generator: Adobe Illustrator 24.2.3, SVG Export Plug-In . SVG Version: 6.00 Build 0)  -->
<svg version="1.1" id="Layer_1" xmlns="http://www.w3.org/2000/svg" xmlns:xlink="http://www.w3.org/1999/xlink" x="0px" y="0px"
	 viewBox="0 0 128 128" style="enable-background:new 0 0 128 128;" xml:space="preserve">
<style type="text/css">
	.st0{fill:#784C9F;}
	.st1{fill:#FFFFFF;}
</style>
<g>
	<circle class="st0" cx="64" cy="64" r="63.8"/>
	<g>
		<g>
			<path class="st1" d="M100.3,66.6l-22.9,4.1c-0.6,0.8-2,2-2.5,2.4c-2.9,1.4-4.9,1-6.5,0.6c-1.2-0.2-1.8-0.4-2.5-0.8l-5.7,0.8
				l3.3,28.2l39.2-7.1L100.3,66.6z M65.4,99.1L65,96l6.5-9.8l7.3,2.2L85,78l7.4,4.9l5.7-12l2,21.8L65.4,99.1z M63.6,71.3
				c-2.7-1.8-5.7-4.5-7.1-5.9c-0.2-0.2-0.2-0.8-0.2-0.8c1.2,1,5.9,4.3,11,5.9c1.8,0.6,4.5,0.8,6.9-0.6c1.8-1,3.9-2.7,5.3-4.7
				l0.2,0.4c0,0.2-0.6,1.6-1,2.2c0.6,0.4,1,0.4,1.6,0.6l4.1-0.6c1.6-2.4,2.5-6.3,1.4-10c-0.6-2.2-4.1-6.5-4.3-6.7
				c-0.8-0.8,0.2-4.1-1.6-7.4c-1.8-3.7-6.5-7.4-8.6-9.2c0.6,0.4,4.3,2,6.1,3.9c0.2-0.2,0.2-1.4,0.4-1.6c-1.6-2-1.6-5.5-1.6-6.3
				c0-1.8-0.8-3.5-0.8-3.5s1.6,1.2,2,3.1c0.4,2.4,1.4,4.3,2.7,5.9c2.4,2.9,4.5,4.5,5.7,3.5c1.4-1.4-1.4-7.3-4.7-10.6
				c-3.9-3.9-4.9-3.3-7.3-2.5c-1.8,0.6-2.9,5.9-7.6,5.9c-0.8,0-2.9-0.2-3.9-0.2c0.6-1.2,1-1.8,1-1.8s-1.6,0.6-2.9,1.6l-0.2-0.2
				c0.6-1,1.2-1.6,1.2-1.6s-1.4,0.8-2.5,1.8c0.2-1.2,1-2,1-2s-1.6,0.4-3.7,2.5c-2.4,0.6-2.9,1-4.9,2c-3.1-0.6-4.5-1.8-5.9-3.7
				c-1-1.6-2.9-1.8-4.9-1c-2.5,1.2-6.1,2.7-6.1,2.7s1.2,0,2.4,0c-1.8,0.6-3.3,1.4-3.3,1.4s0.8,0,1.8,0c-0.6,0.6-1,0.8-1.6,1.2
				c-1.6,1.2-2.7,2.4-2.7,2.4s1-0.4,2-0.8c-0.6,1.4-2,2.5-1.8,4.3c0.2,1.6,2.2,5.1,4.9,7.1c0.2,0.2,3.7,3.5,6.5,2.2
				c2.7-1.4,3.7-2.5,4.1-4.3c0.6-2.2,0.2-3.7-0.8-8.2c-0.6-1.6-1.4-4.5-2-6.1h0.2c0.8,1.8,3.1,6.7,3.9,10c1.4,5.1,1,7.6,0.4,8.6
				c-2,2.9-6.9,3.1-9.2,1.6c-0.4,5.5,0.8,7.8,1.4,9c-0.2,1.4,0.8,3.9,0.8,3.9s0.2-1.2,0.6-1.8c0.2,1.4,0.8,2.9,0.8,2.9s0-1,0.2-2
				c0.4,0.8,0.8,1,1.2,1.6C44.2,67,45,68,45,68s-0.2-0.8,0-1.6c2.2,2,2.4,4.9,2.5,7.1c0.6,6.1-9.6,11-11.8,14.9
				c-1.6,2.4-2.4,5.9,0.2,8c6.1,5.1,3.7,6.5,6.9,8.8c4.3,3.1,9.6,1.8,11.4-0.8c2.5-3.5,2-6.9,1-9.8c-0.8-2.4-2.7-6.5-5.1-8
				c-2.5-1.6-4.9-2-7.1-1.8l0.2-0.2c2.9-0.6,6.1-0.2,8.2,1.2c2.5,1.6,4.9,4.5,6.1,8.8c1.4-0.2,1.6-0.2,2.9-0.4l-2.9-22.2L63.6,71.3z
				 M77.9,43.5c2.5,1.2,2.4,3.5,2.4,4.9c0,0.4,0,0.6,0,0.8c-0.4-0.2-1-0.4-1.8-0.4c-0.2,0-0.6,0-0.8,0c-1-0.6-1.6-1.6-2.2-2.5
				c0-0.2,0-0.2-0.2-0.2c0,0,0,0,0-0.2l0,0c-0.2-1,0-1.2,0-1.4c0.2-0.2,0.6-0.6-0.2-0.8H75C75.6,43.3,76.9,43.1,77.9,43.5z
				 M74.8,58.7c0.6-0.4,2.7-1.2,4.9-1.4c1.2-0.2,2.7-0.2,3.1,0c0.6,0.4,0.6,1.6,0.2,2.5c-0.6,1.6-1.6,3.3-2.7,3.5
				c-1.8,0.2-3.5-0.8-5.3-2.2C74.2,60.7,73.8,59.5,74.8,58.7z M57.9,47c2.7-2,6.5-1.2,5.9-0.6c-1.2,1.2,0.4,0.8,0.6,2.7
				c0.2,1.6-0.4,2.4-0.8,2.7c-0.8,0.2-2,0.4-3.3,0.8c-0.8,0.2-1.4,0.6-2,0.8c-0.2-0.2-0.4-0.2-0.6-0.4C55.8,51.3,55.8,48.4,57.9,47z
				"/>
		</g>
		<path class="st0" d="M102.4,63.3l-2.4,0.4L96,19l-74.1,8.6l9.2,73.9l8.6-1.2c-0.8-1-1.8-2.2-3.5-3.7c-2.5-2.2-1.6-5.7-0.2-8
			c2-3.9,12.4-8.6,11.8-14.9c-0.2-2.2-0.6-5.1-2.5-7.1c0,0.8,0,1.6,0,1.6S44.4,67,44,65.6c-0.4-0.6-0.8-0.8-1.2-1.6
			c-0.4,0.8-0.2,2-0.2,2s-0.8-1.6-0.8-2.9c-0.4,0.6-0.6,1.8-0.6,1.8s-1-2.5-0.8-3.9c-0.4-1.2-1.6-3.7-1.4-9c2.4,1.6,7.3,1.2,9.2-1.6
			c0.6-1,1.2-3.5-0.4-8.6c-1-3.3-3.1-8-3.9-10l-0.4-0.2c0.4,1.6,1.4,4.5,1.8,6.1c1.2,4.5,1.4,6.1,0.8,8.2c-0.4,1.8-1.6,2.9-4.1,4.3
			c-2.7,1.4-6.3-2-6.5-2.2c-2.5-2.2-4.5-5.5-4.9-7.1c0-1.6,1.2-2.7,2-4.1c-1,0.2-2,0.8-2,0.8s1.2-1.4,2.7-2.5c0.6-0.4,1-0.6,1.6-1.2
			c-1,0-1.8,0-1.8,0s1.6-0.8,3.1-1.6c-1.2,0-2.4,0-2.4,0s3.5-1.6,6.3-2.7c2-0.8,3.7-0.6,4.9,1c1.4,2,2.7,3.1,5.9,3.7
			c2-0.8,2.5-1.2,4.9-2c2.2-2.4,3.7-2.5,3.7-2.5s-0.8,0.8-1,2c1.2-0.8,2.5-1.6,2.5-1.6s-0.6,0.6-1,1.6l0.2,0.2
			c1.2-0.8,2.7-1.6,2.7-1.6s-0.4,0.6-1,1.4c1,0,3.1,0,3.9,0.2c4.9,0.2,5.9-5.1,7.6-5.9c2.4-0.8,3.3-1.4,7.3,2.5
			c3.3,3.3,6.1,9.2,4.7,10.6c-1.2,1.2-3.3-0.4-5.7-3.5c-1.4-1.6-2.2-3.5-2.7-5.9c-0.4-2-2-3.1-2-3.1s0.8,2,0.8,3.5
			c0,1,0.2,4.3,1.6,6.3c-0.2,0.2-0.2,1.4-0.4,1.6c-1.8-2.2-5.5-3.5-6.1-3.9c2,1.8,6.7,5.5,8.6,9.2c1.8,3.5,0.8,6.7,1.6,7.4
			c0.2,0.2,3.7,4.5,4.3,6.7c1.2,3.7,0,7.6-1.4,10L80.3,68c-0.6-0.2-1-0.2-1.6-0.6c0.4-0.6,1-2,1-2.2l-0.2-0.4
			c-1.4,1.8-3.5,3.7-5.3,4.7c-2.4,1.4-5.1,1.2-6.9,0.6c-5.1-1.6-9.8-4.9-11-5.9c0,0,0,0.8,0.2,0.8c1.4,1.4,4.1,4.1,7.1,5.9l-6.1,0.6
			l2.9,22.7c-1.2,0.2-1.4,0.2-2.9,0.4c-1.2-4.3-3.5-7.1-6.1-8.8c-2.2-1.4-5.3-1.8-8.2-1.2L43,84.8c2.2-0.2,4.5,0,7.1,1.8
			c2.5,1.6,4.5,5.5,5.1,8c1,3.1,1.6,6.5-1,9.8c-1.8,2.5-7.1,3.9-11.2,1c1.2,1.8,2.5,3.3,4.7,3.5c3.1,0.4,5.9-0.2,7.8-2.2
			c1.8-1.8,2.5-5.5,2.4-9.2l2.7-0.4l1,6.9l44.5-5.3L102.4,63.3z M59.9,73.5l5.7-0.8c1,0.4,1.6,0.6,2.5,0.8c1.8,0.4,3.7,0.8,6.5-0.6
			c0.6-0.4,2.2-1.6,2.5-2.4l22.9-4.1l2.4,28.2l-39.2,7.1L59.9,73.5z M92.4,82.9L85,78l-6.3,10.4l-7.3-2L65,96.2l0.4,3.1l34.9-6.5
			l-2-21.8L92.4,82.9z M57.9,47c-2.2,1.4-2.2,4.5-0.2,6.3c0.2,0.2,0.4,0.2,0.6,0.4c0.6-0.2,1.2-0.6,2-0.8c1.4-0.4,2.4-0.6,3.3-0.8
			c0.4-0.4,1-1.4,0.8-2.7c-0.2-2-1.8-1.8-0.6-2.7C64.4,45.8,60.7,45,57.9,47z M75,61.3c2,1.4,3.5,2.4,5.3,2.2c1.2-0.2,2-2,2.7-3.5
			c0.4-1,0.4-2.2-0.2-2.5c-0.4-0.2-2-0.2-3.1,0c-2.2,0.2-4.5,1-4.9,1.4C73.8,59.5,74.2,60.7,75,61.3z M75.4,46L75.4,46
			C75.4,46.2,75.6,46.2,75.4,46c0.2,0.2,0.2,0.4,0.2,0.4c0.6,1.2,1.2,2.2,2.2,2.5c0.2,0,0.6,0,0.8,0c1,0,1.6,0.2,1.8,0.4
			c0-0.2,0-0.4,0-0.8c0-1.4,0.2-3.7-2.4-4.9c-1-0.4-2.4-0.4-2.9,0.2h0.2c0.8,0.2,0.2,0.4,0.2,0.8C75.4,44.8,75.2,45,75.4,46z"/>
	</g>
</g>
</svg>
